<mxfile host="Electron" modified="2024-03-01T22:24:12.508Z" agent="Mozilla/5.0 (Macintosh; Intel Mac OS X 10_15_7) AppleWebKit/537.36 (KHTML, like Gecko) draw.io/23.1.5 Chrome/120.0.6099.109 Electron/28.1.0 Safari/537.36" etag="m4met4ThOxFpzuH4bQAV" version="23.1.5" type="device">
  <diagram name="Página-1" id="YoZXyenoAZkZEbPyovve">
    <mxGraphModel dx="1420" dy="949" grid="1" gridSize="10" guides="1" tooltips="1" connect="1" arrows="1" fold="1" page="1" pageScale="1" pageWidth="1169" pageHeight="827" math="0" shadow="0">
      <root>
        <mxCell id="0" />
        <mxCell id="1" parent="0" />
        <mxCell id="m2Ca6PeMLzEJXS5qAJng-5" style="edgeStyle=orthogonalEdgeStyle;rounded=0;orthogonalLoop=1;jettySize=auto;html=1;entryX=0.5;entryY=0;entryDx=0;entryDy=0;" edge="1" parent="1" source="m2Ca6PeMLzEJXS5qAJng-1" target="m2Ca6PeMLzEJXS5qAJng-4">
          <mxGeometry relative="1" as="geometry" />
        </mxCell>
        <mxCell id="m2Ca6PeMLzEJXS5qAJng-1" value="Salesforce" style="ellipse;shape=cloud;whiteSpace=wrap;html=1;" vertex="1" parent="1">
          <mxGeometry x="40" y="30" width="120" height="80" as="geometry" />
        </mxCell>
        <mxCell id="m2Ca6PeMLzEJXS5qAJng-7" style="edgeStyle=orthogonalEdgeStyle;rounded=0;orthogonalLoop=1;jettySize=auto;html=1;" edge="1" parent="1" source="m2Ca6PeMLzEJXS5qAJng-2" target="m2Ca6PeMLzEJXS5qAJng-6">
          <mxGeometry relative="1" as="geometry" />
        </mxCell>
        <mxCell id="m2Ca6PeMLzEJXS5qAJng-2" value="Salesforce NC" style="ellipse;shape=cloud;whiteSpace=wrap;html=1;" vertex="1" parent="1">
          <mxGeometry x="215" y="30" width="120" height="80" as="geometry" />
        </mxCell>
        <mxCell id="m2Ca6PeMLzEJXS5qAJng-3" value="" style="shape=curlyBracket;whiteSpace=wrap;html=1;rounded=1;labelPosition=left;verticalLabelPosition=middle;align=right;verticalAlign=middle;rotation=-90;" vertex="1" parent="1">
          <mxGeometry x="150" y="200" width="20" height="120" as="geometry" />
        </mxCell>
        <mxCell id="m2Ca6PeMLzEJXS5qAJng-4" value="&lt;div style=&quot;text-align: center;&quot;&gt;&lt;span style=&quot;background-color: initial;&quot;&gt;Oportunities&lt;/span&gt;&lt;/div&gt;- TKT Directos&amp;nbsp;&lt;br&gt;- TKT - PAX (comentarios)" style="rounded=1;whiteSpace=wrap;html=1;align=left;" vertex="1" parent="1">
          <mxGeometry x="20" y="150" width="160" height="80" as="geometry" />
        </mxCell>
        <mxCell id="m2Ca6PeMLzEJXS5qAJng-6" value="&lt;div style=&quot;text-align: center;&quot;&gt;&lt;span style=&quot;background-color: initial;&quot;&gt;Oportunities&lt;/span&gt;&lt;/div&gt;- TKT Directos&lt;br&gt;- TKT - PAX (comentarios)&lt;br&gt;- LAND - OW (comentarios)&lt;br&gt;- LAND - RT (comentarios)" style="rounded=1;whiteSpace=wrap;html=1;align=left;" vertex="1" parent="1">
          <mxGeometry x="190" y="150" width="170" height="80" as="geometry" />
        </mxCell>
        <mxCell id="m2Ca6PeMLzEJXS5qAJng-18" style="edgeStyle=orthogonalEdgeStyle;rounded=0;orthogonalLoop=1;jettySize=auto;html=1;entryX=0.5;entryY=0;entryDx=0;entryDy=0;" edge="1" parent="1" source="m2Ca6PeMLzEJXS5qAJng-9" target="m2Ca6PeMLzEJXS5qAJng-14">
          <mxGeometry relative="1" as="geometry" />
        </mxCell>
        <mxCell id="m2Ca6PeMLzEJXS5qAJng-19" style="edgeStyle=orthogonalEdgeStyle;rounded=0;orthogonalLoop=1;jettySize=auto;html=1;entryX=0.5;entryY=0;entryDx=0;entryDy=0;" edge="1" parent="1" source="m2Ca6PeMLzEJXS5qAJng-9" target="m2Ca6PeMLzEJXS5qAJng-11">
          <mxGeometry relative="1" as="geometry" />
        </mxCell>
        <mxCell id="m2Ca6PeMLzEJXS5qAJng-9" value="XTS" style="ellipse;shape=cloud;whiteSpace=wrap;html=1;" vertex="1" parent="1">
          <mxGeometry x="100" y="280" width="120" height="80" as="geometry" />
        </mxCell>
        <mxCell id="m2Ca6PeMLzEJXS5qAJng-17" style="edgeStyle=orthogonalEdgeStyle;rounded=0;orthogonalLoop=1;jettySize=auto;html=1;entryX=0;entryY=0.5;entryDx=0;entryDy=0;" edge="1" parent="1" source="m2Ca6PeMLzEJXS5qAJng-10" target="m2Ca6PeMLzEJXS5qAJng-11">
          <mxGeometry relative="1" as="geometry" />
        </mxCell>
        <mxCell id="m2Ca6PeMLzEJXS5qAJng-10" value="LAN-OW (C)&lt;br&gt;LAN-RT (C*)" style="shape=process;whiteSpace=wrap;html=1;backgroundOutline=1;align=center;" vertex="1" parent="1">
          <mxGeometry x="51" y="550" width="160" height="70" as="geometry" />
        </mxCell>
        <mxCell id="m2Ca6PeMLzEJXS5qAJng-11" value="&lt;p style=&quot;margin:0px;margin-top:6px;text-align:center;&quot;&gt;&lt;b&gt;Reservas de boletos&lt;/b&gt;&lt;/p&gt;&lt;hr&gt;&lt;p style=&quot;margin:0px;margin-left:8px;&quot;&gt;- TKT Directos (C)&lt;/p&gt;&lt;p style=&quot;margin:0px;margin-left:8px;&quot;&gt;- LAND OW (C)&lt;/p&gt;&lt;p style=&quot;margin:0px;margin-left:8px;&quot;&gt;- LAND RT (C*)&lt;/p&gt;" style="align=left;overflow=fill;html=1;dropTarget=0;whiteSpace=wrap;" vertex="1" parent="1">
          <mxGeometry x="335" y="420" width="180" height="100" as="geometry" />
        </mxCell>
        <mxCell id="m2Ca6PeMLzEJXS5qAJng-12" value="" style="shape=component;jettyWidth=8;jettyHeight=4;" vertex="1" parent="m2Ca6PeMLzEJXS5qAJng-11">
          <mxGeometry x="1" width="20" height="20" relative="1" as="geometry">
            <mxPoint x="-24" y="4" as="offset" />
          </mxGeometry>
        </mxCell>
        <mxCell id="m2Ca6PeMLzEJXS5qAJng-16" style="edgeStyle=orthogonalEdgeStyle;rounded=0;orthogonalLoop=1;jettySize=auto;html=1;" edge="1" parent="1" source="m2Ca6PeMLzEJXS5qAJng-14" target="m2Ca6PeMLzEJXS5qAJng-10">
          <mxGeometry relative="1" as="geometry" />
        </mxCell>
        <mxCell id="m2Ca6PeMLzEJXS5qAJng-14" value="&lt;p style=&quot;margin:0px;margin-top:6px;text-align:center;&quot;&gt;&lt;b&gt;Matriz de Asignación&lt;/b&gt;&lt;/p&gt;&lt;hr&gt;&lt;p style=&quot;margin:0px;margin-left:8px;&quot;&gt;&lt;br style=&quot;border-color: var(--border-color); text-align: center;&quot;&gt;&lt;/p&gt;&lt;div style=&quot;border-color: var(--border-color);&quot;&gt;&lt;span style=&quot;border-color: var(--border-color); background-color: initial;&quot;&gt;- TKT PAX (C)&lt;/span&gt;&lt;/div&gt;" style="align=left;overflow=fill;html=1;dropTarget=0;whiteSpace=wrap;" vertex="1" parent="1">
          <mxGeometry x="40" y="400" width="180" height="90" as="geometry" />
        </mxCell>
        <mxCell id="m2Ca6PeMLzEJXS5qAJng-15" value="" style="shape=component;jettyWidth=8;jettyHeight=4;" vertex="1" parent="m2Ca6PeMLzEJXS5qAJng-14">
          <mxGeometry x="1" width="20" height="20" relative="1" as="geometry">
            <mxPoint x="-24" y="4" as="offset" />
          </mxGeometry>
        </mxCell>
        <mxCell id="m2Ca6PeMLzEJXS5qAJng-21" value="Salesforce NC" style="text;align=center;fontStyle=1;verticalAlign=middle;spacingLeft=3;spacingRight=3;strokeColor=none;rotatable=0;points=[[0,0.5],[1,0.5]];portConstraint=eastwest;html=1;" vertex="1" parent="1">
          <mxGeometry x="310" y="294" width="80" height="26" as="geometry" />
        </mxCell>
        <mxCell id="m2Ca6PeMLzEJXS5qAJng-22" value="Salesforce" style="text;align=center;fontStyle=1;verticalAlign=middle;spacingLeft=3;spacingRight=3;strokeColor=none;rotatable=0;points=[[0,0.5],[1,0.5]];portConstraint=eastwest;html=1;" vertex="1" parent="1">
          <mxGeometry x="70" y="350" width="80" height="26" as="geometry" />
        </mxCell>
        <mxCell id="m2Ca6PeMLzEJXS5qAJng-23" value="Salesforce NC" style="text;align=center;fontStyle=1;verticalAlign=middle;spacingLeft=3;spacingRight=3;strokeColor=none;rotatable=0;points=[[0,0.5],[1,0.5]];portConstraint=eastwest;html=1;" vertex="1" parent="1">
          <mxGeometry x="170" y="360" width="80" height="26" as="geometry" />
        </mxCell>
        <mxCell id="m2Ca6PeMLzEJXS5qAJng-24" value=":Actividades" style="shape=umlLifeline;perimeter=lifelinePerimeter;whiteSpace=wrap;html=1;container=1;dropTarget=0;collapsible=0;recursiveResize=0;outlineConnect=0;portConstraint=eastwest;newEdgeStyle={&quot;curved&quot;:0,&quot;rounded&quot;:0};" vertex="1" parent="1">
          <mxGeometry x="1190" y="86" width="100" height="304" as="geometry" />
        </mxCell>
        <mxCell id="m2Ca6PeMLzEJXS5qAJng-25" value=":R. Pendiente" style="shape=umlLifeline;perimeter=lifelinePerimeter;whiteSpace=wrap;html=1;container=1;dropTarget=0;collapsible=0;recursiveResize=0;outlineConnect=0;portConstraint=eastwest;newEdgeStyle={&quot;curved&quot;:0,&quot;rounded&quot;:0};" vertex="1" parent="1">
          <mxGeometry x="1330" y="86" width="100" height="300" as="geometry" />
        </mxCell>
        <mxCell id="m2Ca6PeMLzEJXS5qAJng-26" value=":E. Pendiente" style="shape=umlLifeline;perimeter=lifelinePerimeter;whiteSpace=wrap;html=1;container=1;dropTarget=0;collapsible=0;recursiveResize=0;outlineConnect=0;portConstraint=eastwest;newEdgeStyle={&quot;curved&quot;:0,&quot;rounded&quot;:0};" vertex="1" parent="1">
          <mxGeometry x="1460" y="86" width="100" height="300" as="geometry" />
        </mxCell>
        <mxCell id="m2Ca6PeMLzEJXS5qAJng-27" value=":Emitido" style="shape=umlLifeline;perimeter=lifelinePerimeter;whiteSpace=wrap;html=1;container=1;dropTarget=0;collapsible=0;recursiveResize=0;outlineConnect=0;portConstraint=eastwest;newEdgeStyle={&quot;curved&quot;:0,&quot;rounded&quot;:0};" vertex="1" parent="1">
          <mxGeometry x="1590" y="86" width="100" height="300" as="geometry" />
        </mxCell>
        <mxCell id="m2Ca6PeMLzEJXS5qAJng-28" value="Secuencia Reserva de boletos" style="text;align=center;fontStyle=1;verticalAlign=middle;spacingLeft=3;spacingRight=3;strokeColor=none;rotatable=0;points=[[0,0.5],[1,0.5]];portConstraint=eastwest;html=1;" vertex="1" parent="1">
          <mxGeometry x="1210" y="30" width="450" height="26" as="geometry" />
        </mxCell>
        <mxCell id="m2Ca6PeMLzEJXS5qAJng-29" value=":Solo boletos" style="shape=umlLifeline;perimeter=lifelinePerimeter;whiteSpace=wrap;html=1;container=1;dropTarget=0;collapsible=0;recursiveResize=0;outlineConnect=0;portConstraint=eastwest;newEdgeStyle={&quot;curved&quot;:0,&quot;rounded&quot;:0};" vertex="1" parent="1">
          <mxGeometry x="730" y="88" width="100" height="300" as="geometry" />
        </mxCell>
        <mxCell id="m2Ca6PeMLzEJXS5qAJng-31" value="Secuencia&amp;nbsp; matriz asignación" style="text;align=center;fontStyle=1;verticalAlign=middle;spacingLeft=3;spacingRight=3;strokeColor=none;rotatable=0;points=[[0,0.5],[1,0.5]];portConstraint=eastwest;html=1;" vertex="1" parent="1">
          <mxGeometry x="736.25" y="40" width="365" height="26" as="geometry" />
        </mxCell>
        <mxCell id="m2Ca6PeMLzEJXS5qAJng-32" value=":Asignación actividad genérica" style="shape=umlLifeline;perimeter=lifelinePerimeter;whiteSpace=wrap;html=1;container=1;dropTarget=0;collapsible=0;recursiveResize=0;outlineConnect=0;portConstraint=eastwest;newEdgeStyle={&quot;curved&quot;:0,&quot;rounded&quot;:0};" vertex="1" parent="1">
          <mxGeometry x="857.5" y="88" width="122.5" height="300" as="geometry" />
        </mxCell>
        <mxCell id="m2Ca6PeMLzEJXS5qAJng-33" value=":LAND RT / OW" style="shape=umlLifeline;perimeter=lifelinePerimeter;whiteSpace=wrap;html=1;container=1;dropTarget=0;collapsible=0;recursiveResize=0;outlineConnect=0;portConstraint=eastwest;newEdgeStyle={&quot;curved&quot;:0,&quot;rounded&quot;:0};" vertex="1" parent="1">
          <mxGeometry x="1010" y="86" width="100" height="300" as="geometry" />
        </mxCell>
      </root>
    </mxGraphModel>
  </diagram>
</mxfile>
